<?xml version="1.0" standalone="no"?><!DOCTYPE svg PUBLIC "-//W3C//DTD SVG 1.1//EN" "http://www.w3.org/Graphics/SVG/1.1/DTD/svg11.dtd"><svg t="1711306721084" class="icon" viewBox="0 0 1024 1024" version="1.1" xmlns="http://www.w3.org/2000/svg" p-id="8776" xmlns:xlink="http://www.w3.org/1999/xlink" width="32" height="32"><path d="M997.959571 348.06196l-0.010703-0.160545a109.138617 109.138617 0 0 0-3.478479-22.56195l-0.171248-0.620774a98.938646 98.938646 0 0 0-7.588436-19.661434c-26.532768-50.989151-95.834772-74.032736-188.447938-70.81113-75.734515-82.766394-184.605556-134.676004-305.624516-134.676003-228.766185 0-414.21728 185.451094-414.21728 414.217279 0 30.096871 3.296528 59.412421 9.386542 87.679077-51.727659 67.236323-75.028116 131.368773-60.589753 181.330435l-0.074921 0.021406c0.117733 0.42812 0.288981 0.824132 0.417418 1.252252 0.652884 2.129899 1.337877 4.238393 2.119196 6.32548 1.262955 3.435667 2.66505 6.807116 4.33472 10.071535 0.096327 0.181951 0.139139 0.363902 0.235466 0.545853 1.637561 3.135983 3.489182 6.132826 5.437131 9.065452 0.503042 0.749211 1.027489 1.477016 1.551936 2.215523 1.637561 2.311851 3.371449 4.54878 5.201664 6.721492 0.492339 0.599369 0.973974 1.198737 1.487719 1.787403 2.333257 2.643644 4.79495 5.180258 7.427891 7.620545 0.481636 0.438824 1.006083 0.856241 1.498421 1.295065a112.863265 112.863265 0 0 0 9.472166 7.620544c2.55802 1.851621 5.201664 3.628321 7.952338 5.3301 0.470933 0.299684 0.931162 0.620775 1.434204 0.920459 3.210904 1.926542 6.57165 3.735351 10.039426 5.458537 1.016786 0.513745 2.076384 0.99538 3.114576 1.487718 2.643644 1.241549 5.351506 2.440287 8.13429 3.574807 1.166628 0.481636 2.311851 0.963271 3.510588 1.4235 3.724648 1.444907 7.524218 2.804189 11.473629 4.056442l2.515208 0.727805a222.900934 222.900934 0 0 0 14.727345 3.906599c2.996843 0.695696 6.047202 1.337877 9.151075 1.947948 1.498422 0.288981 2.954031 0.610072 4.473859 0.877647 4.270502 0.749211 8.648034 1.434204 13.100487 2.012167 1.787403 0.235466 3.628321 0.42812 5.447834 0.642181a398.098543 398.098543 0 0 0 15.530071 1.455609 387.127955 387.127955 0 0 0 18.676756 0.856241c3.639024 0.096327 7.310157 0.149842 11.045509 0.149842a611.645045 611.645045 0 0 0 16.407718-0.331793c2.654347-0.096327 5.287288-0.181951 7.973744-0.310387 4.152769-0.21406 8.359053-0.481636 12.608148-0.792023 3.574806-0.256872 7.192424-0.588666 10.820746-0.920459a500.793946 500.793946 0 0 0 18.055982-1.926543l4.227689-0.556556a412.173004 412.173004 0 0 0 215.901165 60.68608c220.93158 0 401.405774-172.971382 413.532286-390.87401 2.954031-3.307231 5.908063-6.614462 8.722955-9.921692l2.643645-3.146686a577.149236 577.149236 0 0 0 12.276355-15.069841c2.536614-3.221607 5.00901-6.443213 7.406484-9.643415 0.909756-1.20944 1.840918-2.429584 2.729268-3.639024 3.221607-4.366829 6.32548-8.722955 9.290215-13.057675l1.316471-1.99076c2.568723-3.788866 5.030416-7.56703 7.395781-11.33449l2.022869-3.264419c2.386772-3.863787 4.677216-7.716872 6.839225-11.54855l0.845538-1.45561c2.525911-4.505968 4.891277-8.979827 7.117503-13.421577 0.21406-0.406714 0.385308-0.813429 0.599369-1.220144 1.980057-4.002927 3.810272-7.973744 5.554863-11.912452l0.88835-2.02287c3.76746-8.787173 6.914146-17.424504 9.397245-25.879883l0.214061-0.759914c1.166628-4.045739 2.183415-8.037962 3.050358-12.00878l0.224763-0.973974c1.787403-8.423271 2.889813-16.632481 3.253716-24.606226l0.021406-0.567259c0.160545-3.960115 0.160545-7.834605-0.032109-11.634175zM492.638251 174.49121c78.217614 0 150.25959 26.671907 207.71336 71.292765H700.340908a342.945921 342.945921 0 0 1 34.495808 30.706942l0.417418 0.449527c4.869871 4.966198 9.55779 10.114347 14.10657 15.390931 0.684993 0.802726 1.391392 1.584046 2.065681 2.397475a337.423166 337.423166 0 0 1 80.326108 212.144407v0.010703c-56.854401 58.352823-140.337897 122.891987-251.253214 180.645442-108.303782 56.404875-206.867822 87.604156-286.316283 101.239793a340.569852 340.569852 0 0 1-123.89807-169.246733 337.198403 337.198403 0 0 1-11.131133-43.497042l-0.353199-1.947949a334.886552 334.886552 0 0 1-3.146686-21.170558l-0.128436-1.027489a336.577628 336.577628 0 0 1-1.808809-23.139913c-0.21406-4.955495-0.374605-9.921692-0.374606-14.930702 0-187.110061 152.207538-339.317599 339.296194-339.317599zM189.143634 796.892782a330.048791 330.048791 0 0 1-12.832912-0.770617l-1.070301-0.085624a253.15835 253.15835 0 0 1-12.436901-1.34858l-0.235466-0.032109a185.483203 185.483203 0 0 1-22.519138-4.356126l-0.706399-0.21406a127.772561 127.772561 0 0 1-8.305537-2.515208c-0.824132-0.288981-1.584046-0.599369-2.386772-0.88835a95.149779 95.149779 0 0 1-8.219913-3.489182 74.278905 74.278905 0 0 1-6.775007-3.76746 48.238476 48.238476 0 0 1-3.457073-2.45099c-0.695696-0.535151-1.423501-1.070301-2.054979-1.616155a34.527918 34.527918 0 0 1-2.814892-2.77208c-0.492339-0.535151-1.059598-1.048895-1.498422-1.584046a27.260572 27.260572 0 0 1-2.761377-4.099254c-0.096327-0.181951-0.235466-0.331793-0.331793-0.513744a28.10611 28.10611 0 0 1-2.311851-6.721492h-0.010703c-3.606915-15.637101 2.900516-39.761691 19.597216-69.173569a414.720321 414.720321 0 0 0 72.480799 106.430755h-0.224763c-0.396011 0-0.759914-0.010703-1.123816-0.032109z m303.494617 56.190814c-31.563183 0-62.098877-4.420344-91.114744-12.522524 68.167485-19.811276 140.712503-48.666597 213.578611-86.608776 74.835462-38.969668 141.750695-83.119594 197.995024-128.896377-46.162092 132.588917-172.339904 228.027677-320.458891 228.027677z m430.732027-492.980747a62.130986 62.130986 0 0 1-1.048895 7.716872c-0.342496 1.819512-0.770617 3.692539-1.252252 5.608379-0.224763 0.899053-0.449527 1.798106-0.706399 2.718565-0.599369 2.108493-1.305768 4.291908-2.065682 6.518134-0.267575 0.802726-0.513745 1.584046-0.813429 2.408178-0.99538 2.729268-2.119196 5.554863-3.350042 8.433974-0.160545 0.353199-0.267575 0.695696-0.428121 1.048895a224.763259 224.763259 0 0 1-10.788636 21.3204c-0.278278 0.503042-0.610072 1.016786-0.899053 1.519828-1.487719 2.579426-3.093171 5.201664-4.730732 7.845308a411.316763 411.316763 0 0 0-43.582666-114.425904c29.679453 3.457073 50.77509 11.259569 61.317558 21.941175 1.016786 1.016786 1.947948 2.044275 2.782783 3.114576 0.941865 1.230846 1.798106 2.483099 2.472396 3.778164 0.834835 1.594749 1.498422 3.350043 2.012166 5.22307 0.139139 0.470933 0.203357 1.006083 0.310387 1.498421 0.32109 1.434204 0.620775 2.911219 0.770617 4.484563 0.074921 0.684993 0.085624 1.423501 0.117733 2.129899 0.085624 1.498422 0.128436 3.018249 0.064218 4.623701-0.032109 0.813429-0.10703 1.658967-0.181951 2.493802z" fill="#3E3A39" p-id="8777"></path><path d="M562.207831 371.073437m-72.69486 0a72.69486 72.69486 0 1 0 145.389719 0 72.69486 72.69486 0 1 0-145.389719 0Z" fill="#3E3A39" p-id="8778"></path></svg>