<svg width="32" height="32" viewBox="0 0 32 32" fill="none" xmlns="http://www.w3.org/2000/svg">
<g id="female">
<mask id="mask0_39_893" style="mask-type:alpha" maskUnits="userSpaceOnUse" x="0" y="0" width="32" height="32">
<rect id="Bounding box" width="32" height="32" fill="#D9D9D9"/>
</mask>
<g mask="url(#mask0_39_893)">
<path id="female_2" d="M14.6665 27.9999V25.3333H11.9998V22.6666H14.6665V19.8666C12.9109 19.5555 11.4721 18.7166 10.3498 17.3499C9.22762 15.9833 8.6665 14.3999 8.6665 12.5999C8.6665 10.5777 9.38317 8.86103 10.8165 7.44992C12.2498 6.03881 13.9776 5.33325 15.9998 5.33325C18.0221 5.33325 19.7498 6.03881 21.1832 7.44992C22.6165 8.86103 23.3332 10.5777 23.3332 12.5999C23.3332 14.3999 22.7721 15.9833 21.6498 17.3499C20.5276 18.7166 19.0887 19.5555 17.3332 19.8666V22.6666H19.9998V25.3333H17.3332V27.9999H14.6665ZM15.9998 17.3333C17.2887 17.3333 18.3887 16.8777 19.2998 15.9666C20.2109 15.0555 20.6665 13.9555 20.6665 12.6666C20.6665 11.3777 20.2109 10.2777 19.2998 9.36659C18.3887 8.45547 17.2887 7.99992 15.9998 7.99992C14.7109 7.99992 13.6109 8.45547 12.6998 9.36659C11.7887 10.2777 11.3332 11.3777 11.3332 12.6666C11.3332 13.9555 11.7887 15.0555 12.6998 15.9666C13.6109 16.8777 14.7109 17.3333 15.9998 17.3333Z" fill="white"/>
</g>
</g>
</svg>
