<svg width="32" height="32" viewBox="0 0 32 32" fill="none" xmlns="http://www.w3.org/2000/svg">
<g id="male">
<mask id="mask0_39_888" style="mask-type:alpha" maskUnits="userSpaceOnUse" x="0" y="0" width="32" height="32">
<rect id="Bounding box" width="32" height="32" fill="#D9D9D9"/>
</mask>
<g mask="url(#mask0_39_888)">
<path id="male_2" d="M26.6668 5.33325V13.3333H24.0002V9.89992L18.7002 15.1666C19.1224 15.7888 19.4446 16.4499 19.6668 17.1499C19.8891 17.8499 20.0002 18.5777 20.0002 19.3333C20.0002 21.3777 19.2891 23.111 17.8668 24.5333C16.4446 25.9555 14.7113 26.6666 12.6668 26.6666C10.6224 26.6666 8.88905 25.9555 7.46683 24.5333C6.04461 23.111 5.3335 21.3777 5.3335 19.3333C5.3335 17.2888 6.04461 15.5555 7.46683 14.1333C8.88905 12.711 10.6224 11.9999 12.6668 11.9999C13.4002 11.9999 14.1224 12.1055 14.8335 12.3166C15.5446 12.5277 16.2002 12.8555 16.8002 13.2999L22.1002 7.99992H18.6668V5.33325H26.6668ZM12.6668 14.6666C11.3779 14.6666 10.2779 15.1221 9.36683 16.0333C8.45572 16.9444 8.00016 18.0444 8.00016 19.3333C8.00016 20.6221 8.45572 21.7221 9.36683 22.6333C10.2779 23.5444 11.3779 23.9999 12.6668 23.9999C13.9557 23.9999 15.0557 23.5444 15.9668 22.6333C16.8779 21.7221 17.3335 20.6221 17.3335 19.3333C17.3335 18.0444 16.8779 16.9444 15.9668 16.0333C15.0557 15.1221 13.9557 14.6666 12.6668 14.6666Z" fill="white"/>
</g>
</g>
</svg>
