<svg width="29" height="29" viewBox="0 0 29 29" fill="none" xmlns="http://www.w3.org/2000/svg">
<g id="fi-sr-arrow-small-right">
<path id="Vector" d="M20.6152 11.5094L16.2821 7.17636C15.9421 6.83651 15.481 6.64564 15.0003 6.64575C14.5195 6.64587 14.0585 6.83695 13.7187 7.17697C13.3788 7.51699 13.1879 7.97809 13.188 8.45883C13.1882 8.93958 13.3792 9.40059 13.7193 9.74045L16.6664 12.6876H6.0415C5.5608 12.6876 5.09978 12.8785 4.75987 13.2184C4.41996 13.5583 4.229 14.0194 4.229 14.5001C4.229 14.9808 4.41996 15.4418 4.75987 15.7817C5.09978 16.1216 5.5608 16.3126 6.0415 16.3126H16.6664L13.7193 19.2597C13.3792 19.5996 13.1882 20.0606 13.188 20.5413C13.1879 21.0221 13.3788 21.4832 13.7187 21.8232C14.0585 22.1632 14.5195 22.3543 15.0003 22.3544C15.481 22.3545 15.9421 22.1636 16.2821 21.8238L20.6152 17.4907C21.407 16.6968 21.8516 15.6213 21.8516 14.5001C21.8516 13.3788 21.407 12.3034 20.6152 11.5094Z" fill="black"/>
</g>
</svg>
