<svg width="32" height="32" viewBox="0 0 32 32" fill="none" xmlns="http://www.w3.org/2000/svg">
<g id="transgender">
<mask id="mask0_39_880" style="mask-type:alpha" maskUnits="userSpaceOnUse" x="0" y="0" width="32" height="32">
<rect id="Bounding box" width="32" height="32" fill="#D9D9D9"/>
</mask>
<g mask="url(#mask0_39_880)">
<path id="transgender_2" d="M16 21.1058C17.2889 21.1058 18.3889 20.6345 19.3 19.692C20.2111 18.7494 20.6667 17.6115 20.6667 16.2782C20.6667 14.9448 20.2111 13.8069 19.3 12.8644C18.3889 11.9218 17.2889 11.4506 16 11.4506C14.7111 11.4506 13.6111 11.9218 12.7 12.8644C11.7889 13.8069 11.3333 14.9448 11.3333 16.2782C11.3333 17.6115 11.7889 18.7494 12.7 19.692C13.6111 20.6345 14.7111 21.1058 16 21.1058ZM14.6667 32.1402V29.3816H12V26.623H14.6667V23.7264C12.9333 23.4046 11.5 22.5425 10.3667 21.1402C9.23333 19.7379 8.66667 18.1173 8.66667 16.2782C8.66667 15.5195 8.77222 14.7724 8.98333 14.0368C9.19445 13.3012 9.51111 12.623 9.93333 12.0023L9.06667 11.1058L7.2 13.0368L5.33333 11.1058L7.2 9.14024L4.66667 6.51955V10.0713H2V1.79541H10V4.55403H6.56667L9.1 7.17472L11 5.24369L12.8667 7.17472L11 9.14024L11.8667 10.0368C12.4667 9.57702 13.1222 9.23794 13.8333 9.01955C14.5444 8.80116 15.2667 8.69196 16 8.69196C16.7333 8.69196 17.4556 8.80116 18.1667 9.01955C18.8778 9.23794 19.5333 9.57702 20.1333 10.0368L25.4333 4.55403H22V1.79541H30V10.0713H27.3333V6.51955L22.0333 11.9678C22.4556 12.6115 22.7778 13.2954 23 14.0195C23.2222 14.7437 23.3333 15.4966 23.3333 16.2782C23.3333 18.1173 22.7667 19.7379 21.6333 21.1402C20.5 22.5425 19.0667 23.4046 17.3333 23.7264V26.623H20V29.3816H17.3333V32.1402H14.6667Z" fill="white"/>
</g>
</g>
</svg>
